M48
;Layer_Color=9474304
;FILE_FORMAT=4:4
METRIC,LZ
;TYPE=PLATED
T1F00S00C1.0000
%
T01
X008247Y006167
Y006421
X008501
Y006167
X008755
Y006421
X009009
Y006167
X009263
X009517
X009771
X010025
X010279
X010533
Y006421
X010279
X010025
X009771
X009517
X009263
X01181Y006462
Y006716
Y00697
Y007224
Y007478
Y007878
Y006208
Y005954
Y0057
X00701Y005714
Y005968
Y006222
Y006476
Y00673
Y006984
Y007486
Y00774
Y007994
Y008248
Y008502
Y008756
Y00901
Y009264
X01181Y009148
Y009402
Y009656
Y00991
Y010164
Y008894
Y00864
Y008386
Y008132
M30
